<svg id="ICONE_POPOTE" xmlns="http://www.w3.org/2000/svg" version="1.1" viewBox="0 0 500 404">
  <defs>
    <style>
      .icon_logo_color {
        fill: #F57C00;
        stroke-width: 0px;
      }
    </style>
  </defs>
  <path class="icon_logo_color" d="M261.67,282.62c-46.92.18-93.43-4.45-139.64-12.2-10.29-1.73-20.41-4.47-30.55-7.01-6.93-1.74-8.17-.95-8.17,6.34.02,37.92,26.69,76.69,64.79,88.69,22.04,6.94,45.63,9.34,68.69,12.49,27.67,3.78,55.56,2.02,83.06-1.83,26.13-3.65,52.65-6.74,74.75-24.18,25.2-19.9,38-45.83,39.56-77.33.89-17.99.23-36.07.11-54.1-.05-8.16-1.51-9.14-9.85-7.63-57.76,10.49-116.04,14.06-174.63,12.12-29.22-.97-58.29-4.42-86.63-11.84-15.02-3.94-29.43-9.88-42.1-19.52-17.49-13.3-22.95-38.52-11.4-57.73,14.85-24.69,36.3-42.42,61.77-55.14,11.03-5.51,22.86-9.54,34.59-13.48,5.6-1.88,7.83-4.5,7.45-10.41-1.02-15.97,4.51-29.35,17.84-38.57,14.16-9.78,29.29-10.11,44.18-1.72,14.22,8.02,20.91,20.92,20.32,36.99-.26,7.07,2.03,9.76,8.74,11.4,38.18,9.33,71.12,27.59,95.9,58.73,3.06,3.84,5.6,9.6,5.22,14.21-.31,3.74-4.7,8.4-8.47,10.3-5.99,3.03-11.51.21-16.24-4.7-8.58-8.91-16.96-18.22-26.61-25.87-23.03-18.26-50.3-26.69-79.06-29.45-30.06-2.89-59.27,1.78-86.87,14.71-20.21,9.47-37.48,22.76-50.99,40.51-10.71,14.08-7.93,24.3,7.35,32.73,16.3,9,34,13.98,52.14,15.64,32.45,2.99,65.11,6.19,97.61,5.58,36.15-.68,72.23-5.41,108.32-8.66,7.46-.67,14.79-2.74,22.23-3.83,6.57-.96,9.8-3.76,9.37-11.04-.69-11.69-.71-23.43,6.84-33.59,9.97-13.43,23.12-20.39,39.81-17.73,17.01,2.71,27.93,12.75,33.86,29.44,5.86,16.48-3.49,30.46-14.66,36.44-10.46,5.6-21.54,10.17-32.68,14.29-5.21,1.93-6.5,4.55-6.48,9.63.13,23.39,1.22,46.88-.45,70.16-3.33,46.3-26.66,80.29-67.28,102.71-14.77,8.15-30.75,12.03-47.12,14.8-29.85,5.06-59.89,7.73-90.21,6.85-30.55-.9-60.96-4.01-90.26-12.48-29.66-8.57-53.29-26.46-70.14-52.91-14.34-22.51-21.08-46.93-19.97-73.48.27-6.48-2.45-9.24-8.29-11.67-15.07-6.27-30.02-13.13-40.15-26.9-11.01-14.97-9.59-35.53,4.36-47.68,13.51-11.77,29.27-15.27,46.23-7.76,16.23,7.19,24.58,20.06,25.3,37.76.27,6.57.43,13.19-.02,19.73-.41,5.89,1.64,9.25,7.48,10.36,23.42,4.47,46.68,10.16,70.28,13.17,26.76,3.42,53.8,5.03,80.76,6.42,36.31,1.86,72.53.16,108.5-5.54,8.65-1.37,17.3-2.83,26-3.81,9.34-1.05,15.43,3.52,16.3,11.63.85,7.93-4.27,13.89-13.06,15.56-38.91,7.41-78.21,10.42-117.77,10.39ZM55.51,210.36c.06-11.38-3.55-17.58-11.61-18.93-5.94-1-11.91-.39-14.9,6-2.88,6.15,1.04,10.28,5.45,13.49,4.67,3.39,9.75,6.27,14.81,9.07,3.18,1.76,5.75.95,6.2-3.09.24-2.15.04-4.35.04-6.52ZM233.12,53.14c2.67,0,5.11-.11,7.53.02,6.22.33,8.47-2.91,7.41-8.57-.52-2.77-1.49-5.68-3.07-7.97-3.45-5.01-10.75-6.4-16.38-3.63-5.3,2.6-9.05,10.33-7.49,16.08,1.97,7.27,8.06,3.03,12,4.07ZM441.56,160.59c1.26,1.86-1.99,8.63,5.17,6.31,6.36-2.06,12.36-5.45,18.22-8.77,4.71-2.67,4.23-6.37.88-10.23-4.2-4.85-9.44-5.88-15.12-3.93-7.29,2.52-9.3,8.57-9.16,16.62Z"/>
</svg>