<svg width="23" height="24" viewBox="0 0 23 24" fill="none" xmlns="http://www.w3.org/2000/svg">
<g clip-path="url(#clip0_626_1810)">
<path d="M19.2631 10.0931C19.8291 10.6388 20.4877 11.2737 21.3013 12.0015C20.766 12.4875 20.2879 12.9537 19.8437 13.3869C19.7132 13.5142 19.5855 13.6386 19.4603 13.7598C18.7937 14.405 18.1936 14.9595 17.5397 15.419C16.2604 16.318 14.7304 16.8846 12.0542 16.8846C7.79608 16.8846 5.93008 15.0508 3.90642 13.0621C3.54847 12.7104 3.18559 12.3538 2.80367 12.0016C3.34034 11.5144 3.81956 11.0471 4.26472 10.6131C4.39525 10.4858 4.52285 10.3613 4.64811 10.2401C5.31469 9.59499 5.91476 9.04043 6.56867 8.58095C7.84805 7.68197 9.37799 7.11536 12.0542 7.11536C14.7752 7.11536 16.0017 7.44796 17.1126 8.20622C17.6897 8.60007 18.2496 9.11862 18.9748 9.81544C19.0683 9.90527 19.1643 9.9978 19.2631 10.0931Z" stroke="#878787"/>
<circle cx="12.054" cy="12" r="2.57692" stroke="#878787"/>
</g>
<defs>
<clipPath id="clip0_626_1810">
<rect width="22.6306" height="24" fill="white" transform="translate(0.0541992)"/>
</clipPath>
</defs>
</svg>
