<svg width="35" height="35" viewBox="0 0 25 25" fill="none" xmlns="http://www.w3.org/2000/svg">
<path d="M8.47851 21.9067L8.45747 19.4265C8.45745 18.551 9.15272 17.8396 10.0142 17.8337H13.1696C14.0351 17.8337 14.7368 18.5468 14.7368 19.4265L14.7578 21.9174C14.7576 22.6607 15.3414 23.2683 16.0726 23.2857H18.1762C20.2733 23.2857 21.9733 21.5579 21.9733 19.4265V9.6343C21.9621 8.79582 21.5747 8.00845 20.9215 7.49626L13.7271 1.60595C12.4667 0.580326 10.675 0.580326 9.41462 1.60595L2.25177 7.50695C1.59602 8.01706 1.20803 8.80574 1.19995 9.64499V19.4265C1.19995 21.5579 2.89995 23.2857 4.997 23.2857H7.10063C7.84999 23.2857 8.45747 22.6683 8.45747 21.9067" fill="#97BF0D" stroke="#97BF0D" stroke-width="1.5" stroke-linecap="round" stroke-linejoin="round"/>
</svg>
