<svg width="84" height="55" viewBox="0 0 84 55" fill="none" xmlns="http://www.w3.org/2000/svg">
<path d="M38.4785 37.9067L38.4575 35.4265C38.4575 34.551 39.1527 33.8396 40.0142 33.8337H43.1696C44.0351 33.8337 44.7368 34.5468 44.7368 35.4265L44.7578 37.9174C44.7576 38.6607 45.3414 39.2683 46.0726 39.2857H48.1762C50.2733 39.2857 51.9733 37.5579 51.9733 35.4265V25.6343C51.9621 24.7958 51.5747 24.0084 50.9215 23.4963L43.7271 17.6059C42.4667 16.5803 40.675 16.5803 39.4146 17.6059L32.2518 23.5069C31.596 24.0171 31.208 24.8057 31.2 25.645V35.4265C31.2 37.5579 32.8999 39.2857 34.997 39.2857H37.1006C37.85 39.2857 38.4575 38.6683 38.4575 37.9067" stroke="#97A2B0" stroke-width="1.5" stroke-linecap="round" stroke-linejoin="round"/>
</svg>
