<svg width="27" height="15" viewBox="0 0 27 15" fill="none" xmlns="http://www.w3.org/2000/svg">
<path d="M22.8452 4.47876C23.6237 5.22929 24.5326 6.10549 25.6665 7.11447C24.9083 7.7972 24.2371 8.45167 23.6139 9.05932C23.4411 9.22778 23.2721 9.39264 23.1058 9.55351C22.2247 10.4063 21.4243 11.1465 20.5494 11.7613C18.8279 12.9709 16.7732 13.7266 13.2104 13.7266C7.51503 13.7266 5.00047 11.254 2.32171 8.61999C1.81197 8.11876 1.29628 7.61167 0.751592 7.11467C1.51097 6.43102 2.18305 5.77569 2.807 5.16729C2.97976 4.99884 3.14883 4.83398 3.31504 4.67312C4.19616 3.82035 4.99659 3.08009 5.87153 2.46529C7.59297 1.25569 9.64769 0.5 13.2104 0.5C16.818 0.5 18.4766 0.940652 19.9833 1.96902C20.7583 2.49792 21.507 3.19204 22.4641 4.1117C22.5878 4.23054 22.7147 4.35288 22.8452 4.47876Z" stroke="#878787"/>
<circle cx="13.2105" cy="7.11335" r="3.56475" stroke="#878787"/>
</svg>
