<svg width="42" height="42" viewBox="0 0 42 42" fill="none" xmlns="http://www.w3.org/2000/svg">
<path d="M1 17C1 9.45753 1 5.68629 3.34315 3.34315C5.68629 1 9.45753 1 17 1H25C32.5425 1 36.3137 1 38.6569 3.34315C41 5.68629 41 9.45753 41 17V25C41 32.5425 41 36.3137 38.6569 38.6569C36.3137 41 32.5425 41 25 41H17C9.45753 41 5.68629 41 3.34315 38.6569C1 36.3137 1 32.5425 1 25V17Z" fill="#5C5C5C"/>
<path d="M1 17C1 9.45753 1 5.68629 3.34315 3.34315C5.68629 1 9.45753 1 17 1H25C32.5425 1 36.3137 1 38.6569 3.34315C41 5.68629 41 9.45753 41 17V25C41 32.5425 41 36.3137 38.6569 38.6569C36.3137 41 32.5425 41 25 41H17C9.45753 41 5.68629 41 3.34315 38.6569C1 36.3137 1 32.5425 1 25V17Z" stroke="white" stroke-width="1.5" stroke-linejoin="round"/>
<path d="M26.9591 29.0374C25.367 30.6146 23.2532 31.4803 21 31.4803C18.7468 31.4803 16.633 30.6146 15.0409 29.0374C13.4548 27.4631 12.5802 25.3759 12.5802 23.1554C12.5802 21.8657 12.8707 20.6294 13.4429 19.4791C14.0003 18.3555 14.8304 17.3504 15.8384 16.5766C16.4813 16.0851 17.0644 15.5199 17.5758 14.8927C18.3169 13.9884 18.898 12.9804 19.3012 11.8983C19.4666 11.4519 19.5868 10.9901 19.66 10.5197C20.3745 11.1779 20.9733 11.9724 21.4744 12.9033C22.4646 14.7593 22.9212 16.4106 22.8322 17.8159C22.811 18.1469 22.865 18.4783 22.9903 18.7854C23.1156 19.0925 23.3089 19.3672 23.5556 19.5888C23.7694 19.7819 24.0195 19.9307 24.2913 20.0264C24.563 20.122 24.8511 20.1628 25.1388 20.1462C25.7228 20.1165 26.2594 19.8586 26.6508 19.4228C27.0451 18.981 27.386 18.5304 27.6706 18.0709C28.0857 18.6015 28.4326 19.1797 28.7083 19.8023C29.1797 20.8636 29.4198 21.9932 29.4198 23.1554C29.4198 25.3759 28.5452 27.4661 26.9591 29.0374Z" stroke="white" stroke-width="1.5" stroke-linejoin="round"/>
<path d="M22.6455 27.309C22.0065 27.942 21.1582 28.2895 20.2538 28.2895C19.3495 28.2895 18.5012 27.942 17.8622 27.309C17.2256 26.6772 16.8746 25.8395 16.8746 24.9483C16.8746 24.4307 16.9912 23.9345 17.2209 23.4729C17.4446 23.0219 17.7777 22.6185 18.1823 22.308C18.4403 22.1107 18.6743 21.8839 18.8795 21.6321C19.177 21.2692 19.4102 20.8647 19.572 20.4304C19.6384 20.2512 19.6867 20.0658 19.716 19.8771C20.0028 20.1412 20.2431 20.4601 20.4442 20.8337C20.8416 21.5786 21.0249 22.2413 20.9892 22.8053C20.9807 22.9382 21.0024 23.0712 21.0526 23.1945C21.1029 23.3177 21.1805 23.4279 21.2795 23.5169C21.3653 23.5944 21.4657 23.6541 21.5748 23.6925C21.6838 23.7309 21.7995 23.7472 21.9149 23.7406C22.1493 23.7287 22.3647 23.6252 22.5217 23.4503C22.68 23.273 22.8168 23.0921 22.9311 22.9077C23.0976 23.1207 23.2369 23.3527 23.3475 23.6026C23.5367 24.0285 23.6331 24.4819 23.6331 24.9483C23.6331 25.8395 23.2821 26.6784 22.6455 27.309Z" stroke="white" stroke-width="1.5" stroke-linejoin="round"/>
</svg>
