<svg width="20" height="24" viewBox="0 0 20 24" fill="none" xmlns="http://www.w3.org/2000/svg">
<path d="M15.959 20.0374C14.3669 21.6146 12.2531 22.4803 9.9999 22.4803C7.74671 22.4803 5.63286 21.6146 4.0408 20.0374C2.45467 18.4631 1.58008 16.3759 1.58008 14.1554C1.58008 12.8657 1.87062 11.6294 2.44281 10.4791C3.00018 9.35547 3.8303 8.35043 4.83831 7.57663C5.48118 7.08506 6.06426 6.51989 6.57564 5.89267C7.31682 4.98843 7.89791 3.98042 8.30111 2.8983C8.4665 2.45192 8.58668 1.99007 8.65984 1.5197C9.37434 2.17787 9.97321 2.97241 10.4743 3.90334C11.4645 5.75926 11.921 7.41061 11.8321 8.81589C11.8108 9.14686 11.8649 9.47834 11.9902 9.78541C12.1155 10.0925 12.3088 10.3672 12.5555 10.5888C12.7693 10.7819 13.0194 10.9307 13.2911 11.0263C13.5629 11.122 13.851 11.1628 14.1387 11.1462C14.7227 11.1165 15.2593 10.8586 15.6507 10.4228C16.045 9.98102 16.3859 9.53039 16.6705 9.07085C17.0856 9.60154 17.4325 10.1797 17.7082 10.8023C18.1796 11.8636 18.4197 12.9932 18.4197 14.1554C18.4197 16.3759 17.5451 18.4661 15.959 20.0374Z" stroke="white" stroke-width="1.5" stroke-linejoin="round"/>
<path d="M11.6454 18.309C11.0064 18.942 10.158 19.2895 9.25373 19.2895C8.34943 19.2895 7.50105 18.942 6.86209 18.309C6.2255 17.6772 5.87449 16.8395 5.87449 15.9483C5.87449 15.4307 5.9911 14.9345 6.22074 14.4729C6.44444 14.0219 6.7776 13.6185 7.18216 13.308C7.44017 13.1107 7.67419 12.8839 7.87943 12.6321C8.1769 12.2692 8.41011 11.8647 8.57193 11.4303C8.63831 11.2512 8.68655 11.0658 8.71591 10.8771C9.00267 11.1412 9.24302 11.4601 9.44411 11.8337C9.84153 12.5786 10.0248 13.2413 9.98907 13.8053C9.98055 13.9382 10.0022 14.0712 10.0525 14.1945C10.1028 14.3177 10.1804 14.4279 10.2794 14.5169C10.3652 14.5944 10.4656 14.6541 10.5747 14.6925C10.6837 14.7309 10.7993 14.7472 10.9148 14.7406C11.1492 14.7287 11.3646 14.6252 11.5216 14.4502C11.6799 14.273 11.8167 14.0921 11.9309 13.9077C12.0975 14.1207 12.2367 14.3527 12.3474 14.6026C12.5366 15.0285 12.633 15.4819 12.633 15.9483C12.633 16.8395 12.282 17.6784 11.6454 18.309Z" stroke="white" stroke-width="1.5" stroke-linejoin="round"/>
</svg>
