<svg width="42" height="42" viewBox="0 0 42 42" fill="none" xmlns="http://www.w3.org/2000/svg">
<path d="M38.6569 3.34315L38.1265 3.87348L38.1265 3.87348L38.6569 3.34315ZM38.6569 38.6569L38.1265 38.1265L38.1265 38.1265L38.6569 38.6569ZM3.34315 38.6569L3.87348 38.1265L3.87348 38.1265L3.34315 38.6569ZM24.3821 24.8022C24.7378 25.0144 25.1982 24.8981 25.4104 24.5424C25.6226 24.1866 25.5063 23.7262 25.1506 23.514L24.3821 24.8022ZM20.0793 21.3621H19.3293C19.3293 21.6262 19.4682 21.8708 19.695 22.0062L20.0793 21.3621ZM20.8293 15.3361C20.8293 14.9218 20.4935 14.5861 20.0793 14.5861C19.6651 14.5861 19.3293 14.9218 19.3293 15.3361H20.8293ZM1.75 17C1.75 13.2076 1.75159 10.4387 2.03621 8.32176C2.31792 6.22642 2.86448 4.88247 3.87348 3.87348L2.81282 2.81282C1.47867 4.14697 0.853656 5.86021 0.549581 8.12189C0.248407 10.362 0.25 13.25 0.25 17H1.75ZM3.87348 3.87348C4.88247 2.86448 6.22642 2.31792 8.32176 2.03621C10.4387 1.75159 13.2076 1.75 17 1.75V0.25C13.25 0.25 10.362 0.248407 8.12189 0.549581C5.86021 0.853656 4.14697 1.47867 2.81282 2.81282L3.87348 3.87348ZM17 1.75H25V0.25H17V1.75ZM25 1.75C28.7924 1.75 31.5613 1.75159 33.6782 2.03621C35.7736 2.31792 37.1175 2.86448 38.1265 3.87348L39.1872 2.81282C37.853 1.47867 36.1398 0.853656 33.8781 0.549581C31.638 0.248407 28.75 0.25 25 0.25V1.75ZM38.1265 3.87348C39.1355 4.88247 39.6821 6.22642 39.9638 8.32176C40.2484 10.4387 40.25 13.2076 40.25 17H41.75C41.75 13.25 41.7516 10.362 41.4504 8.12189C41.1463 5.86021 40.5213 4.14697 39.1872 2.81282L38.1265 3.87348ZM40.25 17V25H41.75V17H40.25ZM40.25 25C40.25 28.7924 40.2484 31.5613 39.9638 33.6782C39.6821 35.7736 39.1355 37.1175 38.1265 38.1265L39.1872 39.1872C40.5213 37.853 41.1463 36.1398 41.4504 33.8781C41.7516 31.638 41.75 28.75 41.75 25H40.25ZM38.1265 38.1265C37.1175 39.1355 35.7736 39.6821 33.6782 39.9638C31.5613 40.2484 28.7924 40.25 25 40.25V41.75C28.75 41.75 31.638 41.7516 33.8781 41.4504C36.1398 41.1463 37.853 40.5213 39.1872 39.1872L38.1265 38.1265ZM25 40.25H17V41.75H25V40.25ZM17 40.25C13.2076 40.25 10.4387 40.2484 8.32176 39.9638C6.22642 39.6821 4.88247 39.1355 3.87348 38.1265L2.81282 39.1872C4.14697 40.5213 5.86021 41.1463 8.12189 41.4504C10.362 41.7516 13.25 41.75 17 41.75V40.25ZM3.87348 38.1265C2.86448 37.1175 2.31792 35.7736 2.03621 33.6782C1.75159 31.5613 1.75 28.7924 1.75 25H0.25C0.25 28.75 0.248407 31.638 0.549581 33.8781C0.853656 36.1398 1.47867 37.853 2.81282 39.1872L3.87348 38.1265ZM1.75 25V17H0.25V25H1.75ZM31.25 20.5C31.25 26.4375 26.4375 31.25 20.5 31.25V32.75C27.2659 32.75 32.75 27.2659 32.75 20.5H31.25ZM20.5 31.25C14.5625 31.25 9.75 26.4375 9.75 20.5H8.25C8.25 27.2659 13.7341 32.75 20.5 32.75V31.25ZM9.75 20.5C9.75 14.5625 14.5625 9.75 20.5 9.75V8.25C13.7341 8.25 8.25 13.7341 8.25 20.5H9.75ZM20.5 9.75C26.4375 9.75 31.25 14.5625 31.25 20.5H32.75C32.75 13.7341 27.2659 8.25 20.5 8.25V9.75ZM25.1506 23.514L20.4635 20.718L19.695 22.0062L24.3821 24.8022L25.1506 23.514ZM20.8293 21.3621V15.3361H19.3293V21.3621H20.8293Z" fill="#F4F4F4"/>
</svg>
