<svg id="LOGO_POPOTE" data-name="LOGO_POPOTE" xmlns="http://www.w3.org/2000/svg" version="1.1" viewBox="0 0 1366 384">
  <defs>
    <style>
      .full_logo_color {
        fill: #F57C00;
        stroke-width: 0px;
      }
    </style>
  </defs>
  <path class="full_logo_color" d="M833.54,305.54c-2.18,0-4.39-.03-6.66-.09-56.22-1.43-92.12-13.22-112.98-37.09-13.9-15.91-20.35-36.33-19.57-62.17-19.15-8.55-32.09-18.31-37.65-26.66-5.45-8.17-4.51-18.46,2.45-26.86,8.52-10.29,26.13-17.61,41.97-10.9,8.92,3.78,22.87,14.73,21.78,46.2,21,6.92,49.38,12.54,84.9,12.54,73.62,0,97.67-5.8,97.9-5.86,7.24-1.81,14.64,2.55,16.5,9.79,1.86,7.23-2.42,14.6-9.64,16.51-1.04.27-26.34,6.74-104.77,6.74-33.46,0-62.53-4.68-86.14-11.58.9,14.31,5.11,25.64,12.73,34.36,15.29,17.5,45.77,26.59,93.19,27.8,75.99,1.95,92.12-31.86,99.86-48.1l.44-.93c4.26-8.91,3.16-36.1,2.52-51.14-27.23,3.84-61.08,5.31-99.77,6.51-33.77,1.03-62.82-2.82-84.06-11.18-29.16-11.48-34.18-27.12-34.57-35.42-1.23-25.76,49-66.47,100.12-71.26,52.38-4.89,98.69,38.42,100.63,40.26,5.44,5.17,5.67,13.77.5,19.21-5.16,5.44-13.76,5.67-19.2.51-.75-.7-39.6-36.64-79.39-32.92-39.42,3.69-72.09,33.05-75.36,43.06,2.94,6.43,29.01,22.48,90.51,20.57,27.35-.85,68.71-2.13,100.5-6.91.69-11.89,3.27-29.61,17.09-36.89,14.65-7.73,36.96-3.72,47.75,8.59,7.39,8.43,7.97,19.32,1.51,28.42-7.36,10.37-20.79,17.38-39.25,22.23.05,1.15.1,2.32.15,3.5,1.15,27.05,1.56,50.58-5.14,64.58l-.43.89c-8.39,17.6-30.35,63.66-118.43,63.66ZM682.72,167.99c2.74,2.31,6.9,5.16,12.45,8.2-.94-5.61-2.83-8.77-4.91-9.48-2.24-.77-5.29.08-7.53,1.28ZM960.46,137.52c-.56.76-1.44,2.58-2.16,6.89,5.43-1.8,9.85-3.86,12.94-6.22-3.33-1.22-8.03-1.83-10.78-.66ZM739.11,137.54h0Z"/>
  <path class="full_logo_color" d="M787.7,94.98c-.37,0-.74-.02-1.11-.05-7.46-.61-13.03-7.12-12.45-14.58,1.37-17.54,10.85-47.22,37.68-47.22s36.42,28.71,37.78,43.89c.67,7.47-4.85,14.08-12.32,14.75-7.46.68-14.08-4.85-14.75-12.32-.01-.13-2.55-19.13-10.71-19.13-5.8,0-9.91,14.23-10.59,22.2-.6,7.09-6.54,12.47-13.53,12.47Z"/>
  <path class="full_logo_color" d="M187.75,91.1c-10.93,11.99-24.26,22.73-39.98,32.18-15.73,9.46-32.52,17.33-50.37,23.59-17.86,6.26-34.25,10.59-49.18,12.99l-7.19,83.16c.8,2.67,1,5.6.6,8.8-.4,3.2-1.54,6.2-3.4,9-1.87,2.8-4.4,5.27-7.6,7.4-3.2,2.13-7.07,3.33-11.59,3.6-4.8.26-8.46-.6-11-2.6-2.54-2-4.2-4.6-5-7.8-.8-3.2-1.07-6.66-.8-10.4.26-3.73.66-7.2,1.2-10.39L15.04,104.69c0-3.73.2-8.06.6-12.99.4-4.93.93-10.13,1.6-15.59.66-5.46,1.26-10.99,1.8-16.59.53-5.6,1.06-10.92,1.6-15.99.53-6.4,2.53-12.32,6-17.79,3.46-5.46,8.8-8.86,15.99-10.19,11.46-2.13,26.39-4.53,44.78-7.2,18.39-2.66,41.58-4,69.56-4,6.66,0,13.12.74,19.39,2.2,6.26,1.47,11.73,4,16.39,7.6,4.66,3.6,8.26,8.46,10.79,14.59,2.53,6.13,3.4,13.99,2.6,23.59-1.34,13.86-7.47,26.79-18.39,38.78ZM166.56,44.92c-1.34-1.73-3.14-3-5.4-3.8-2.27-.8-4.8-1.26-7.6-1.4-2.8-.13-5.4-.2-7.8-.2-7.19,0-14.86.2-22.99.6-8.13.4-16.19,1-24.19,1.8-8,.8-15.73,1.8-23.19,3-7.47,1.2-13.99,2.6-19.59,4.2l-4.4,75.16c11.46-2.4,23.85-6.13,37.18-11.19,13.32-5.06,25.72-10.86,37.18-17.39,11.46-6.53,21.19-13.52,29.18-20.99,8-7.46,12.39-14.92,13.19-22.39.26-3.2-.27-5.66-1.6-7.4Z"/>
  <path class="full_logo_color" d="M358.06,161.06c-1.07,15.73-5.2,30.52-12.39,44.38-7.2,13.86-16.39,26.05-27.58,36.58-11.19,10.53-23.93,18.86-38.18,24.99-14.26,6.13-29.12,9.19-44.58,9.19-12.26,0-22.52-2-30.78-6-8.27-4-14.86-9.26-19.79-15.79-4.94-6.53-8.33-13.99-10.19-22.39-1.87-8.4-2.54-16.85-2-25.39.8-13.32,4.2-27.25,10.2-41.78,6-14.52,14.32-27.79,24.99-39.78,10.66-11.99,23.45-21.85,38.38-29.59,14.92-7.73,31.85-11.59,50.77-11.59,11.46,0,21.25,2.2,29.39,6.6,8.12,4.4,14.65,10.2,19.59,17.39,4.93,7.2,8.4,15.46,10.4,24.79,2,9.33,2.6,18.79,1.8,28.39ZM320.08,161.06c.26-4.8.06-9.59-.6-14.39-.67-4.8-2.07-9.13-4.2-12.99-2.14-3.86-5.06-6.93-8.8-9.2-3.73-2.26-8.53-3.4-14.39-3.4-13.06,0-24.52,2.74-34.38,8.2-9.86,5.47-18.13,12.39-24.79,20.79-6.67,8.4-11.86,17.66-15.59,27.78-3.73,10.13-6,19.73-6.79,28.79-.27,4-.07,8.13.6,12.39.66,4.27,2,8.06,4,11.39,2,3.34,4.86,6.07,8.6,8.2,3.73,2.14,8.39,3.2,13.99,3.2,10.66,0,20.79-2.26,30.38-6.8,9.59-4.53,18.12-10.53,25.59-17.99s13.52-16.05,18.19-25.79c4.66-9.72,7.4-19.79,8.19-30.18Z"/>
  <path class="full_logo_color" d="M407.63,98.09c-1.87,4.13-4,7.66-6.4,10.59-2.4,2.94-5.07,5.14-8,6.6-2.94,1.47-5.74,1.94-8.4,1.4-4.53-.8-7.53-2.93-9-6.4-1.47-3.46-2.2-7.06-2.2-10.79,0-4,.93-9.06,2.8-15.19l8-47.57c.53-4.26,1.33-8.4,2.4-12.39,1.06-4,2.6-7.6,4.6-10.79,2-3.2,4.46-5.73,7.39-7.6,2.93-1.86,6.53-2.8,10.8-2.8,5.06,0,8.66,1.07,10.79,3.2,2.13,2.14,3.46,4.73,4,7.8.53,3.07.6,6.4.2,9.99-.4,3.6-.6,6.73-.6,9.4l-12.39,51.17c-.8,4.8-2.14,9.26-4,13.39Z"/>
  <path class="full_logo_color" d="M630.71,142.67c-1.07,16.53-5.54,32.45-13.39,47.77-7.86,15.33-17.53,28.92-28.98,40.78-11.46,11.86-24.06,21.39-37.78,28.59-13.73,7.2-27.12,10.79-40.18,10.79-1.34,0-3.07.06-5.2.2-2.13.13-4.4.2-6.8.2h-6.79c-2.14,0-3.6-.14-4.4-.4l-6,83.16c-.27,8.26-2.14,14.26-5.6,17.99-3.47,3.73-9.19,6.4-17.19,7.99-7.47,1.33-11.99-.67-13.59-6-1.6-5.33-2-12.53-1.2-21.59l16.39-236.68v-4.8c0-2.13.33-4.66,1-7.6.66-2.93,1.8-5.8,3.4-8.6,1.6-2.8,3.73-5.26,6.4-7.4,2.66-2.13,6-3.46,9.99-4,6.13-.53,11.33.6,15.59,3.4,4.26,2.8,6.13,8.2,5.6,16.19,13.59-8.53,26.99-14.32,40.18-17.39,13.19-3.06,26.19-4.6,38.98-4.6,18.39,0,31.58,5.53,39.58,16.59,8,11.06,11.33,26.19,10,45.38ZM592.73,142.67c.53-6.93-.74-12.39-3.8-16.39-3.07-4-8.06-6-14.99-6-9.59,0-18.93,1.07-27.98,3.2-9.06,2.14-17.13,4.67-24.19,7.6-7.07,2.94-12.73,6-16.99,9.2-4.27,3.2-6.53,6-6.8,8.39l-5.6,79.56c-.27,3.74.8,6.26,3.2,7.6,2.4,1.34,5.73,2,10,2,9.06,0,18.59-2.8,28.58-8.39,10-5.6,19.19-12.86,27.59-21.79,8.4-8.93,15.45-19.05,21.19-30.38,5.73-11.32,9-22.85,9.8-34.58Z"/>
  <path class="full_logo_color" d="M1159.25,231.82l-7.6,9.19c-3.47,2.94-7.66,6.26-12.59,9.99-4.93,3.74-10.59,7.2-16.99,10.4-6.4,3.2-13.39,5.93-20.99,8.2-7.6,2.26-15.53,3.4-23.79,3.4-3.47,0-6.8-.34-10-1-3.2-.67-6-2-8.4-4-2.4-2-4.27-4.73-5.6-8.2-1.34-3.46-1.74-8.13-1.2-13.99l8.8-125.13-15.19,2.8c-15.73,0-23.19-3.86-22.39-11.59.26-4.8,1.53-8.93,3.8-12.39,2.26-3.46,6.86-6.26,13.79-8.4l22.39-3.6,1.6-28.79c.26-18.65,7.86-27.45,22.79-26.39,3.73.27,6.6,1.07,8.6,2.4,2,1.34,3.4,3.07,4.2,5.2.8,2.14,1.26,4.8,1.4,8,.13,3.2.2,6.8.2,10.79l-1.6,22.79,46.38-6.4c6.4-1.6,11.33-2.26,14.79-2,3.46.27,6,1.14,7.6,2.6,1.6,1.47,2.53,3.47,2.8,6,.26,2.54.4,5.27.4,8.2.53,4-.87,7.33-4.2,9.99-3.34,2.67-10.06,5.47-20.19,8.4l-49.97,7.2-7.6,110.34c-.27,2.67.2,4.4,1.4,5.2,1.2.8,2.6,1.2,4.2,1.2,5.86,0,10.4-1.53,13.59-4.6,3.2-3.06,5.73-5.53,7.6-7.4,3.46-3.46,7.66-6,12.59-7.6,4.93-1.6,9.6-2,13.99-1.2,4.4.8,8.13,2.87,11.19,6.2,3.06,3.34,4.46,8.06,4.2,14.19Z"/>
  <path class="full_logo_color" d="M1364.54,141.87c-.54,8.8-4.93,16.59-13.19,23.39-8.26,6.8-18.79,12.93-31.58,18.39-12.79,5.47-26.86,10.33-42.18,14.59-15.33,4.27-30.32,8.13-44.98,11.59-.54,6.66-.27,12.53.8,17.59,1.06,4.8,2.66,8.46,4.8,10.99,2.13,2.54,4.4,4.34,6.8,5.4,2.4,1.07,4.8,1.67,7.2,1.8,2.4.14,4.53.2,6.4.2,6.4,0,12.73-1.06,18.99-3.2,6.26-2.13,12.39-4.8,18.39-8,6-3.2,11.79-6.8,17.39-10.79,5.6-4,10.92-7.86,15.99-11.59,2.93-1.6,5.26-2.86,7-3.8,1.73-.93,3.4-1.6,5-2,1.6-.4,3.33-.66,5.2-.8,1.86-.13,4.26-.2,7.2-.2,4.53,0,7.53,1.54,9,4.6,1.46,3.07,1.93,7.66,1.4,13.79-.27,3.74-3.87,8.66-10.79,14.79-6.93,6.13-15.79,12.06-26.59,17.79-10.79,5.73-22.92,10.73-36.38,14.99-13.46,4.26-26.99,6.4-40.58,6.4-18.39,0-32.52-5.33-42.38-15.99-9.86-10.66-13.99-27.32-12.39-49.97,1.06-14.92,4.6-29.72,10.59-44.38,6-14.66,14.06-27.85,24.19-39.58,10.13-11.73,21.99-21.19,35.58-28.39,13.59-7.2,28.65-10.79,45.18-10.79,8.26,0,15.85,1.34,22.79,4,6.93,2.67,12.79,6.33,17.59,10.99,4.8,4.67,8.4,10.26,10.79,16.79,2.4,6.53,3.33,13.66,2.8,21.39ZM1326.96,136.27c.53-3.73-.94-7.53-4.4-11.39-3.47-3.86-9.06-5.8-16.79-5.8-5.87,0-12.19,1.4-18.99,4.2s-13.39,6.66-19.79,11.59c-6.4,4.93-12.13,10.93-17.19,17.99-5.06,7.07-8.93,14.99-11.59,23.79,3.2,1.07,7.53,1.14,12.99.2,5.46-.93,11.33-2.46,17.59-4.6,6.26-2.13,12.66-4.73,19.19-7.8,6.53-3.06,12.53-6.26,17.99-9.59,5.46-3.33,10.13-6.66,13.99-9.99,3.86-3.33,6.2-6.2,7-8.6Z"/>
</svg>